<mxfile host="app.diagrams.net" modified="2023-12-11T21:29:14.814Z" agent="Mozilla/5.0 (Windows NT 10.0; Win64; x64) AppleWebKit/537.36 (KHTML, like Gecko) Chrome/119.0.0.0 Safari/537.36" etag="8KDl_1wV9FCif5KePF9f" version="22.1.7" type="device">
  <diagram name="Page-1" id="WOBh8Fp23pVlUknNkaFH">
    <mxGraphModel dx="794" dy="422" grid="1" gridSize="10" guides="1" tooltips="1" connect="1" arrows="1" fold="1" page="1" pageScale="1" pageWidth="850" pageHeight="1100" math="0" shadow="0">
      <root>
        <mxCell id="0" />
        <mxCell id="1" parent="0" />
        <mxCell id="wDj2-tNQDnmVl2PuvNog-1" value="Login" style="strokeWidth=2;html=1;shape=mxgraph.flowchart.start_1;whiteSpace=wrap;" vertex="1" parent="1">
          <mxGeometry x="350" y="90" width="100" height="40" as="geometry" />
        </mxCell>
        <mxCell id="wDj2-tNQDnmVl2PuvNog-2" value="Sign up" style="rounded=1;whiteSpace=wrap;html=1;" vertex="1" parent="1">
          <mxGeometry x="350" y="30" width="100" height="30" as="geometry" />
        </mxCell>
        <mxCell id="wDj2-tNQDnmVl2PuvNog-5" value="Employer Login" style="rounded=1;whiteSpace=wrap;html=1;" vertex="1" parent="1">
          <mxGeometry x="270" y="150" width="100" height="30" as="geometry" />
        </mxCell>
        <mxCell id="wDj2-tNQDnmVl2PuvNog-6" value="Applicant Login" style="rounded=1;whiteSpace=wrap;html=1;" vertex="1" parent="1">
          <mxGeometry x="430" y="150" width="100" height="30" as="geometry" />
        </mxCell>
        <mxCell id="wDj2-tNQDnmVl2PuvNog-7" value="" style="endArrow=classic;html=1;rounded=0;exitX=0.34;exitY=0.05;exitDx=0;exitDy=0;exitPerimeter=0;entryX=0.25;entryY=1;entryDx=0;entryDy=0;" edge="1" parent="1" source="wDj2-tNQDnmVl2PuvNog-1" target="wDj2-tNQDnmVl2PuvNog-2">
          <mxGeometry width="50" height="50" relative="1" as="geometry">
            <mxPoint x="380" y="250" as="sourcePoint" />
            <mxPoint x="430" y="200" as="targetPoint" />
          </mxGeometry>
        </mxCell>
        <mxCell id="wDj2-tNQDnmVl2PuvNog-10" value="" style="endArrow=classic;html=1;rounded=0;entryX=0.687;entryY=0.083;entryDx=0;entryDy=0;entryPerimeter=0;exitX=0.75;exitY=1;exitDx=0;exitDy=0;" edge="1" parent="1" source="wDj2-tNQDnmVl2PuvNog-2" target="wDj2-tNQDnmVl2PuvNog-1">
          <mxGeometry width="50" height="50" relative="1" as="geometry">
            <mxPoint x="380" y="250" as="sourcePoint" />
            <mxPoint x="430" y="200" as="targetPoint" />
          </mxGeometry>
        </mxCell>
        <mxCell id="wDj2-tNQDnmVl2PuvNog-11" value="" style="endArrow=classic;html=1;rounded=0;exitX=0.5;exitY=1;exitDx=0;exitDy=0;exitPerimeter=0;entryX=0.5;entryY=0;entryDx=0;entryDy=0;" edge="1" parent="1" source="wDj2-tNQDnmVl2PuvNog-1" target="wDj2-tNQDnmVl2PuvNog-5">
          <mxGeometry width="50" height="50" relative="1" as="geometry">
            <mxPoint x="380" y="250" as="sourcePoint" />
            <mxPoint x="430" y="200" as="targetPoint" />
          </mxGeometry>
        </mxCell>
        <mxCell id="wDj2-tNQDnmVl2PuvNog-12" value="" style="endArrow=classic;html=1;rounded=0;entryX=0.5;entryY=0;entryDx=0;entryDy=0;" edge="1" parent="1" target="wDj2-tNQDnmVl2PuvNog-6">
          <mxGeometry width="50" height="50" relative="1" as="geometry">
            <mxPoint x="400" y="130" as="sourcePoint" />
            <mxPoint x="430" y="200" as="targetPoint" />
          </mxGeometry>
        </mxCell>
        <mxCell id="wDj2-tNQDnmVl2PuvNog-14" value="Job Postings" style="rounded=1;whiteSpace=wrap;html=1;" vertex="1" parent="1">
          <mxGeometry x="270" y="370" width="100" height="30" as="geometry" />
        </mxCell>
        <mxCell id="wDj2-tNQDnmVl2PuvNog-20" value="Applicant" style="rounded=1;whiteSpace=wrap;html=1;" vertex="1" parent="1">
          <mxGeometry x="430" y="200" width="100" height="30" as="geometry" />
        </mxCell>
        <mxCell id="wDj2-tNQDnmVl2PuvNog-21" value="Employer&amp;nbsp;&lt;span style=&quot;white-space: pre;&quot;&gt;&#x9;&lt;/span&gt;&lt;span style=&quot;white-space: pre;&quot;&gt;&#x9;&lt;/span&gt;&lt;span style=&quot;white-space: pre;&quot;&gt;&#x9;&lt;/span&gt;" style="rounded=1;whiteSpace=wrap;html=1;" vertex="1" parent="1">
          <mxGeometry x="270" y="200" width="100" height="30" as="geometry" />
        </mxCell>
        <mxCell id="wDj2-tNQDnmVl2PuvNog-23" value="" style="endArrow=classic;html=1;rounded=0;exitX=0.5;exitY=1;exitDx=0;exitDy=0;" edge="1" parent="1" source="wDj2-tNQDnmVl2PuvNog-5" target="wDj2-tNQDnmVl2PuvNog-21">
          <mxGeometry width="50" height="50" relative="1" as="geometry">
            <mxPoint x="380" y="250" as="sourcePoint" />
            <mxPoint x="430" y="200" as="targetPoint" />
          </mxGeometry>
        </mxCell>
        <mxCell id="wDj2-tNQDnmVl2PuvNog-24" value="" style="endArrow=classic;html=1;rounded=0;exitX=0.5;exitY=1;exitDx=0;exitDy=0;entryX=0.5;entryY=0;entryDx=0;entryDy=0;" edge="1" parent="1" source="wDj2-tNQDnmVl2PuvNog-6" target="wDj2-tNQDnmVl2PuvNog-20">
          <mxGeometry width="50" height="50" relative="1" as="geometry">
            <mxPoint x="330" y="190" as="sourcePoint" />
            <mxPoint x="330" y="210" as="targetPoint" />
          </mxGeometry>
        </mxCell>
        <mxCell id="wDj2-tNQDnmVl2PuvNog-25" value="" style="endArrow=classic;html=1;rounded=0;exitX=0.5;exitY=1;exitDx=0;exitDy=0;entryX=0.5;entryY=0;entryDx=0;entryDy=0;" edge="1" parent="1" source="wDj2-tNQDnmVl2PuvNog-21" target="wDj2-tNQDnmVl2PuvNog-14">
          <mxGeometry width="50" height="50" relative="1" as="geometry">
            <mxPoint x="380" y="250" as="sourcePoint" />
            <mxPoint x="430" y="200" as="targetPoint" />
          </mxGeometry>
        </mxCell>
        <mxCell id="wDj2-tNQDnmVl2PuvNog-29" value="Applications" style="rounded=1;whiteSpace=wrap;html=1;" vertex="1" parent="1">
          <mxGeometry x="430" y="370" width="100" height="30" as="geometry" />
        </mxCell>
        <mxCell id="wDj2-tNQDnmVl2PuvNog-31" value="" style="endArrow=classic;html=1;rounded=0;exitX=0;exitY=0.5;exitDx=0;exitDy=0;entryX=1;entryY=0.5;entryDx=0;entryDy=0;" edge="1" parent="1" source="wDj2-tNQDnmVl2PuvNog-29" target="wDj2-tNQDnmVl2PuvNog-14">
          <mxGeometry width="50" height="50" relative="1" as="geometry">
            <mxPoint x="380" y="250" as="sourcePoint" />
            <mxPoint x="430" y="200" as="targetPoint" />
          </mxGeometry>
        </mxCell>
        <mxCell id="wDj2-tNQDnmVl2PuvNog-33" value="Opportunities" style="rhombus;whiteSpace=wrap;html=1;" vertex="1" parent="1">
          <mxGeometry x="425" y="270" width="110" height="70" as="geometry" />
        </mxCell>
        <mxCell id="wDj2-tNQDnmVl2PuvNog-34" value="" style="endArrow=classic;html=1;rounded=0;exitX=0.5;exitY=1;exitDx=0;exitDy=0;entryX=0.5;entryY=0;entryDx=0;entryDy=0;" edge="1" parent="1" source="wDj2-tNQDnmVl2PuvNog-20" target="wDj2-tNQDnmVl2PuvNog-33">
          <mxGeometry width="50" height="50" relative="1" as="geometry">
            <mxPoint x="380" y="250" as="sourcePoint" />
            <mxPoint x="430" y="200" as="targetPoint" />
          </mxGeometry>
        </mxCell>
        <mxCell id="wDj2-tNQDnmVl2PuvNog-36" value="Applied" style="endArrow=classic;html=1;rounded=0;exitX=0.5;exitY=1;exitDx=0;exitDy=0;entryX=0.5;entryY=0;entryDx=0;entryDy=0;" edge="1" parent="1" source="wDj2-tNQDnmVl2PuvNog-33" target="wDj2-tNQDnmVl2PuvNog-29">
          <mxGeometry width="50" height="50" relative="1" as="geometry">
            <mxPoint x="380" y="250" as="sourcePoint" />
            <mxPoint x="430" y="200" as="targetPoint" />
            <Array as="points">
              <mxPoint x="480" y="350" />
            </Array>
          </mxGeometry>
        </mxCell>
        <mxCell id="wDj2-tNQDnmVl2PuvNog-38" value="Not Applied" style="endArrow=classic;html=1;rounded=0;exitX=1;exitY=0.5;exitDx=0;exitDy=0;entryX=1;entryY=0.5;entryDx=0;entryDy=0;" edge="1" parent="1" source="wDj2-tNQDnmVl2PuvNog-33" target="wDj2-tNQDnmVl2PuvNog-20">
          <mxGeometry width="50" height="50" relative="1" as="geometry">
            <mxPoint x="380" y="250" as="sourcePoint" />
            <mxPoint x="430" y="200" as="targetPoint" />
            <Array as="points">
              <mxPoint x="600" y="305" />
              <mxPoint x="600" y="215" />
            </Array>
          </mxGeometry>
        </mxCell>
        <mxCell id="wDj2-tNQDnmVl2PuvNog-39" value="Logout" style="endArrow=classic;html=1;rounded=0;exitX=0;exitY=0.5;exitDx=0;exitDy=0;" edge="1" parent="1" source="wDj2-tNQDnmVl2PuvNog-20">
          <mxGeometry width="50" height="50" relative="1" as="geometry">
            <mxPoint x="380" y="250" as="sourcePoint" />
            <mxPoint x="400" y="130" as="targetPoint" />
            <Array as="points">
              <mxPoint x="400" y="215" />
            </Array>
          </mxGeometry>
        </mxCell>
        <mxCell id="wDj2-tNQDnmVl2PuvNog-42" value="Logout" style="endArrow=classic;html=1;rounded=0;exitX=0;exitY=0.5;exitDx=0;exitDy=0;entryX=0;entryY=0.5;entryDx=0;entryDy=0;entryPerimeter=0;" edge="1" parent="1" source="wDj2-tNQDnmVl2PuvNog-21" target="wDj2-tNQDnmVl2PuvNog-1">
          <mxGeometry width="50" height="50" relative="1" as="geometry">
            <mxPoint x="180" y="182.32" as="sourcePoint" />
            <mxPoint x="340" y="110" as="targetPoint" />
            <Array as="points">
              <mxPoint x="240" y="215" />
              <mxPoint x="240" y="119" />
            </Array>
          </mxGeometry>
        </mxCell>
        <mxCell id="wDj2-tNQDnmVl2PuvNog-43" value="Applicant Details" style="rounded=1;whiteSpace=wrap;html=1;" vertex="1" parent="1">
          <mxGeometry x="150" y="270" width="100" height="35" as="geometry" />
        </mxCell>
        <mxCell id="wDj2-tNQDnmVl2PuvNog-44" value="" style="endArrow=classic;html=1;rounded=0;exitX=0;exitY=0.5;exitDx=0;exitDy=0;entryX=0.5;entryY=1;entryDx=0;entryDy=0;" edge="1" parent="1" source="wDj2-tNQDnmVl2PuvNog-14" target="wDj2-tNQDnmVl2PuvNog-43">
          <mxGeometry width="50" height="50" relative="1" as="geometry">
            <mxPoint x="320" y="250" as="sourcePoint" />
            <mxPoint x="370" y="200" as="targetPoint" />
            <Array as="points">
              <mxPoint x="200" y="385" />
            </Array>
          </mxGeometry>
        </mxCell>
        <mxCell id="wDj2-tNQDnmVl2PuvNog-45" value="" style="endArrow=classic;html=1;rounded=0;exitX=1;exitY=0.5;exitDx=0;exitDy=0;entryX=0.25;entryY=1;entryDx=0;entryDy=0;" edge="1" parent="1" source="wDj2-tNQDnmVl2PuvNog-43" target="wDj2-tNQDnmVl2PuvNog-21">
          <mxGeometry width="50" height="50" relative="1" as="geometry">
            <mxPoint x="320" y="250" as="sourcePoint" />
            <mxPoint x="370" y="200" as="targetPoint" />
          </mxGeometry>
        </mxCell>
      </root>
    </mxGraphModel>
  </diagram>
</mxfile>
